<?xml version="1.0" encoding="UTF-8"?>
<svg xmlns="http://www.w3.org/2000/svg" xmlns:xlink="http://www.w3.org/1999/xlink" width="16" height="16" viewBox="0 0 16 16" version="1.1">
<g id="surface1">
<path style=" stroke:none;fill-rule:nonzero;fill:rgb(0%,0%,0%);fill-opacity:1;" d="M 13.972656 3.5 L 11.65625 2.316406 L 10.472656 0 L 8 0.800781 L 5.527344 0 L 4.34375 2.316406 L 2.027344 3.5 L 2.828125 5.972656 L 2.027344 8.445312 L 4.34375 9.628906 L 4.660156 10.246094 L 4.660156 16 L 8 14.332031 L 11.339844 16 L 11.339844 10.246094 L 11.65625 9.628906 L 13.972656 8.445312 L 13.171875 5.972656 Z M 8 13.082031 L 5.777344 14.195312 L 5.777344 11.863281 L 8 11.140625 L 10.222656 11.863281 L 10.222656 14.195312 Z M 10.828125 8.796875 L 9.914062 10.585938 L 8 9.96875 L 6.089844 10.585938 L 5.171875 8.796875 L 3.382812 7.882812 L 4.003906 5.972656 L 3.382812 4.058594 L 5.171875 3.144531 L 6.089844 1.355469 L 8 1.972656 L 9.914062 1.355469 L 10.828125 3.144531 L 12.617188 4.058594 L 11.996094 5.972656 L 12.617188 7.882812 Z M 10.828125 8.796875 "/>
<path style=" stroke:none;fill-rule:nonzero;fill:rgb(0%,0%,0%);fill-opacity:1;" d="M 8 2.910156 C 6.3125 2.910156 4.9375 4.285156 4.9375 5.972656 C 4.9375 7.660156 6.3125 9.035156 8 9.035156 C 9.6875 9.035156 11.0625 7.660156 11.0625 5.972656 C 11.0625 4.285156 9.6875 2.910156 8 2.910156 Z M 8 7.917969 C 6.925781 7.917969 6.054688 7.042969 6.054688 5.972656 C 6.054688 4.898438 6.925781 4.027344 8 4.027344 C 9.074219 4.027344 9.945312 4.898438 9.945312 5.972656 C 9.945312 7.042969 9.074219 7.917969 8 7.917969 Z M 8 7.917969 "/>
</g>
</svg>
